<mxfile host="app.diagrams.net" modified="2023-06-24T07:36:34.440Z" agent="Mozilla/5.0 (Macintosh; Intel Mac OS X 10_15_7) AppleWebKit/537.36 (KHTML, like Gecko) Chrome/106.0.0.0 Safari/537.36" version="21.3.8" etag="yFejePoW_WZjMkPn3zm5" type="github">
  <diagram name="Page-1" id="5QUZx8cvuVeR4H4RNA-9">
    <mxGraphModel>
      <root>
        <mxCell id="0" />
        <mxCell id="1" parent="0" />
      </root>
    </mxGraphModel>
  </diagram>
</mxfile>
